<svg width="133" height="70" viewBox="0 0 133 70" fill="none" xmlns="http://www.w3.org/2000/svg">
<g clip-path="url(#clip0_2_4)">
<path d="M3.37811 8.41661C3.37811 5.9799 4.00546 5.35226 6.40416 5.35226H11.5706C13.8955 5.38918 14.5597 5.9799 14.5966 8.30585V23.6276C14.5966 26.7658 16.0727 27.6149 18.7667 26.1381C27.5496 21.3386 42.8643 24.1814 43.6762 39.9831V65.9746C43.6762 67.6729 42.7905 68.5221 41.0561 68.5959C39.2847 68.6698 37.4765 68.6329 35.7051 68.5959C33.3802 68.559 32.5315 67.7099 32.5315 65.347V43.3797C32.5315 36.1434 26.1103 32.193 19.5785 35.4419C17.2905 36.5864 15.8882 38.4324 15.1871 40.8691C14.7811 42.3459 14.6335 43.8966 14.6335 45.4472V65.0147C14.6335 68.0052 13.9693 68.6329 10.9432 68.6329H7.06841C4.18998 68.6329 3.45192 67.9314 3.45192 65.0886V8.41661H3.37811ZM100.802 8.41661C100.802 5.9799 101.392 5.38919 103.828 5.38919C105.599 5.38919 107.408 5.35227 109.179 5.38919C111.282 5.4261 111.947 6.05374 111.947 8.15817V65.1624C111.947 68.0791 111.43 68.5959 108.515 68.5959C106.854 68.5959 105.193 68.6329 103.533 68.5959C101.503 68.559 100.765 67.8206 100.765 65.79C100.802 60.2521 100.802 -5.16989 100.802 8.41661ZM93.6797 27.5411C93.6797 26.0274 93.1631 25.2151 91.5762 25.2521C89.1775 25.289 86.7788 25.2521 84.3801 25.2521C83.4207 25.2521 82.7933 25.5843 82.4612 26.6181C81.9076 28.5379 81.3172 28.6487 79.5828 27.4672C72.9402 22.963 65.9287 22.7784 59.0278 26.4704C50.4294 31.0485 46.1856 40.6107 47.8093 50.9852C50.4663 67.9314 68.5857 74.7985 79.9887 66.0116C81.1696 65.1255 82.1291 65.5316 82.4243 66.9715C82.6826 68.3006 83.5314 68.5959 84.7123 68.559H90.9858C93.2738 68.559 93.6797 68.1529 93.6797 65.8639V27.5411ZM70.5415 59.0706C63.8252 59.0706 58.4005 53.6434 58.4005 46.924C58.4005 40.2046 63.8252 34.7774 70.5415 34.7774C77.2579 34.7774 82.6826 40.2046 82.6826 46.924C82.6826 53.6434 77.2579 59.0706 70.5415 59.0706Z" fill="white"/>
<path d="M125.121 68.1898C129.014 68.1898 132.169 65.0327 132.169 61.1381C132.169 57.2436 129.014 54.0864 125.121 54.0864C121.228 54.0864 118.073 57.2436 118.073 61.1381C118.073 65.0327 121.228 68.1898 125.121 68.1898Z" fill="#F7ED45"/>
</g>
<defs>
<clipPath id="clip0_2_4">
<rect width="132.113" height="70" fill="white"/>
</clipPath>
</defs>
</svg>
